<?xml version="1.0" standalone="no"?>
<!DOCTYPE svg PUBLIC "-//W3C//DTD SVG 20010904//EN"
 "http://www.w3.org/TR/2001/REC-SVG-20010904/DTD/svg10.dtd">
<svg version="1.0" xmlns="http://www.w3.org/2000/svg"
 width="45.000000pt" height="44.000000pt" viewBox="0 0 45.000000 44.000000"
 preserveAspectRatio="xMidYMid meet">
<metadata>
Created by potrace 1.16, written by Peter Selinger 2001-2019
</metadata>
<g transform="translate(0.000000,44.000000) scale(0.100000,-0.100000)"
fill="#000000" stroke="none">
<path d="M105 428 c-2 -7 -9 -30 -15 -51 -6 -20 -29 -60 -51 -87 -21 -27 -39
-52 -39 -55 0 -3 10 -5 23 -5 15 0 34 13 51 35 16 19 33 35 40 35 6 0 24 -42
39 -93 41 -131 43 -147 22 -147 -22 0 -85 -38 -85 -52 0 -7 22 -8 63 -4 34 3
115 9 180 12 162 9 157 30 -11 42 l-86 7 -21 65 c-12 36 -25 72 -28 80 -12 30
-47 183 -42 188 7 7 -14 42 -26 42 -5 0 -11 -6 -14 -12z"/>
</g>
</svg>
