<?xml version="1.0" standalone="no"?>
<!DOCTYPE svg PUBLIC "-//W3C//DTD SVG 20010904//EN"
 "http://www.w3.org/TR/2001/REC-SVG-20010904/DTD/svg10.dtd">
<svg version="1.0" xmlns="http://www.w3.org/2000/svg"
 width="44.000000pt" height="49.000000pt" viewBox="0 0 44.000000 49.000000"
 preserveAspectRatio="xMidYMid meet">
<metadata>
Created by potrace 1.16, written by Peter Selinger 2001-2019
</metadata>
<g transform="translate(0.000000,49.000000) scale(0.100000,-0.100000)"
fill="#000000" stroke="none">
<path d="M57 479 c-24 -14 -57 -82 -57 -117 0 -76 52 -158 105 -164 l34 -4
-17 29 c-9 16 -27 34 -39 40 -13 6 -23 18 -23 29 0 10 -4 18 -10 18 -15 0 -11
42 5 64 8 11 15 28 15 38 0 24 42 24 61 1 42 -51 59 -101 59 -171 0 -74 -13
-116 -54 -171 -31 -42 -33 -57 -6 -64 13 -3 25 2 34 15 25 36 162 56 244 35
22 -6 32 -5 32 3 0 22 -69 40 -150 40 l-81 0 8 48 c23 132 -5 241 -78 307 -41
37 -53 41 -82 24z"/>
</g>
</svg>
