<?xml version="1.0" standalone="no"?>
<!DOCTYPE svg PUBLIC "-//W3C//DTD SVG 20010904//EN"
 "http://www.w3.org/TR/2001/REC-SVG-20010904/DTD/svg10.dtd">
<svg version="1.0" xmlns="http://www.w3.org/2000/svg"
 width="24.000000pt" height="48.000000pt" viewBox="0 0 24.000000 48.000000"
 preserveAspectRatio="xMidYMid meet">
<metadata>
Created by potrace 1.16, written by Peter Selinger 2001-2019
</metadata>
<g transform="translate(0.000000,48.000000) scale(0.100000,-0.100000)"
fill="#000000" stroke="none">
<path d="M63 465 c-55 -24 -75 -99 -38 -143 29 -33 40 -27 41 24 1 58 22 82
61 68 38 -13 57 -70 42 -127 -11 -40 -38 -73 -94 -113 l-30 -21 50 -24 c102
-50 130 -81 83 -92 -13 -3 -33 -9 -45 -12 -17 -6 -23 -3 -23 9 0 9 -4 16 -10
16 -11 0 -13 -11 -4 -34 12 -31 127 -15 141 20 9 23 -17 64 -59 92 -21 13 -38
29 -38 34 0 6 11 23 25 39 64 77 57 208 -14 258 -34 24 -45 25 -88 6z"/>
</g>
</svg>
