<?xml version="1.0" standalone="no"?>
<!DOCTYPE svg PUBLIC "-//W3C//DTD SVG 20010904//EN"
 "http://www.w3.org/TR/2001/REC-SVG-20010904/DTD/svg10.dtd">
<svg version="1.0" xmlns="http://www.w3.org/2000/svg"
 width="41.000000pt" height="51.000000pt" viewBox="0 0 41.000000 51.000000"
 preserveAspectRatio="xMidYMid meet">
<metadata>
Created by potrace 1.16, written by Peter Selinger 2001-2019
</metadata>
<g transform="translate(0.000000,51.000000) scale(0.100000,-0.100000)"
fill="#000000" stroke="none">
<path d="M165 493 c-40 -21 -46 -32 -40 -70 5 -29 3 -33 -15 -33 -25 0 -36
-27 -45 -107 l-7 -59 53 -28 c65 -36 129 -93 129 -115 0 -13 -18 -21 -72 -34
-40 -10 -92 -17 -115 -17 -40 0 -66 -14 -42 -22 21 -7 223 18 247 31 38 20 29
58 -27 112 -28 27 -68 57 -90 69 -47 24 -52 48 -24 112 16 35 20 38 47 32 29
-6 29 -6 23 32 -6 37 -4 41 30 63 38 25 59 24 173 -4 l25 -7 -24 20 c-49 39
-173 53 -226 25z"/>
</g>
</svg>
