<?xml version="1.0" standalone="no"?>
<!DOCTYPE svg PUBLIC "-//W3C//DTD SVG 20010904//EN"
 "http://www.w3.org/TR/2001/REC-SVG-20010904/DTD/svg10.dtd">
<svg version="1.0" xmlns="http://www.w3.org/2000/svg"
 width="32.000000pt" height="57.000000pt" viewBox="0 0 32.000000 57.000000"
 preserveAspectRatio="xMidYMid meet">
<metadata>
Created by potrace 1.16, written by Peter Selinger 2001-2019
</metadata>
<g transform="translate(0.000000,57.000000) scale(0.100000,-0.100000)"
fill="#000000" stroke="none">
<path d="M102 558 c-7 -7 -12 -18 -12 -25 0 -7 -11 -13 -25 -13 -25 0 -25 -1
-25 -87 0 -49 -7 -116 -15 -151 -21 -88 -23 -209 -5 -249 8 -18 17 -33 20 -33
3 0 3 25 2 56 -3 36 2 72 13 101 l17 44 82 -7 c44 -3 84 -9 87 -13 3 -3 12
-35 19 -71 7 -36 20 -76 28 -90 l16 -25 8 30 c4 16 3 54 -3 85 -6 30 -13 71
-16 90 -3 19 -9 40 -13 45 -4 6 -20 48 -35 95 -29 89 -78 194 -100 217 -17 16
-28 16 -43 1z m62 -145 c15 -43 31 -85 35 -93 5 -9 12 -31 16 -49 7 -34 7 -34
-25 -27 -18 3 -53 6 -78 6 l-45 0 7 43 c3 23 9 65 12 92 7 63 23 105 39 105 7
0 24 -35 39 -77z"/>
</g>
</svg>
