<?xml version="1.0" standalone="no"?>
<!DOCTYPE svg PUBLIC "-//W3C//DTD SVG 20010904//EN"
 "http://www.w3.org/TR/2001/REC-SVG-20010904/DTD/svg10.dtd">
<svg version="1.0" xmlns="http://www.w3.org/2000/svg"
 width="27.000000pt" height="58.000000pt" viewBox="0 0 27.000000 58.000000"
 preserveAspectRatio="xMidYMid meet">
<metadata>
Created by potrace 1.16, written by Peter Selinger 2001-2019
</metadata>
<g transform="translate(0.000000,58.000000) scale(0.100000,-0.100000)"
fill="#000000" stroke="none">
<path d="M10 560 c-13 -23 -10 -390 3 -390 4 0 7 -12 7 -26 0 -15 9 -43 19
-63 11 -20 22 -43 24 -52 12 -36 187 -29 201 8 5 13 0 14 -31 8 -36 -6 -133
-8 -139 -2 -10 9 -22 133 -14 141 12 12 61 -9 101 -45 61 -55 68 -32 8 30
l-41 42 16 34 c25 51 22 114 -8 192 -46 119 -116 179 -146 123z m81 -67 c11
-20 11 -27 2 -30 -17 -6 -17 -43 0 -43 21 0 46 -38 52 -77 4 -31 1 -43 -19
-65 -39 -43 -50 -36 -43 26 5 46 2 57 -14 68 -14 10 -20 31 -25 81 -6 62 -5
67 13 67 11 0 26 -12 34 -27z"/>
</g>
</svg>
