<?xml version="1.0" standalone="no"?>
<!DOCTYPE svg PUBLIC "-//W3C//DTD SVG 20010904//EN"
 "http://www.w3.org/TR/2001/REC-SVG-20010904/DTD/svg10.dtd">
<svg version="1.0" xmlns="http://www.w3.org/2000/svg"
 width="33.000000pt" height="52.000000pt" viewBox="0 0 33.000000 52.000000"
 preserveAspectRatio="xMidYMid meet">
<metadata>
Created by potrace 1.16, written by Peter Selinger 2001-2019
</metadata>
<g transform="translate(0.000000,52.000000) scale(0.100000,-0.100000)"
fill="#000000" stroke="none">
<path d="M159 513 c-2 -4 -22 -17 -44 -29 -30 -16 -48 -37 -74 -85 -31 -57
-35 -72 -35 -144 -1 -70 2 -86 27 -127 49 -84 131 -128 238 -128 44 0 59 4 59
14 0 15 -45 30 -60 21 -16 -10 -104 16 -142 42 -85 57 -114 184 -66 293 12 27
25 50 29 50 5 0 20 11 35 25 49 45 135 27 120 -25 -3 -11 -9 -29 -12 -41 -10
-34 38 -21 50 14 9 23 6 37 -14 75 -23 43 -28 47 -66 50 -23 2 -44 -1 -45 -5z"/>
</g>
</svg>
