<?xml version="1.0" standalone="no"?>
<!DOCTYPE svg PUBLIC "-//W3C//DTD SVG 20010904//EN"
 "http://www.w3.org/TR/2001/REC-SVG-20010904/DTD/svg10.dtd">
<svg version="1.0" xmlns="http://www.w3.org/2000/svg"
 width="39.000000pt" height="50.000000pt" viewBox="0 0 39.000000 50.000000"
 preserveAspectRatio="xMidYMid meet">
<metadata>
Created by potrace 1.16, written by Peter Selinger 2001-2019
</metadata>
<g transform="translate(0.000000,50.000000) scale(0.100000,-0.100000)"
fill="#000000" stroke="none">
<path d="M3 484 c-3 -9 -1 -25 6 -36 14 -23 62 -233 70 -308 3 -30 17 -74 30
-97 29 -50 42 -52 149 -28 85 20 132 47 132 77 0 72 -188 331 -281 387 -42 26
-97 28 -106 5z m113 -59 c14 -14 28 -25 33 -25 15 0 96 -104 156 -201 48 -78
56 -116 28 -125 -10 -3 -37 -14 -61 -25 -23 -10 -55 -19 -71 -19 -35 0 -45 23
-60 130 -5 41 -13 85 -17 98 -5 17 -2 22 12 23 11 0 14 3 7 6 -8 3 -13 24 -13
54 0 46 -1 49 -26 49 -27 0 -53 24 -54 48 0 21 40 13 66 -13z"/>
</g>
</svg>
