<?xml version="1.0" standalone="no"?>
<!DOCTYPE svg PUBLIC "-//W3C//DTD SVG 20010904//EN"
 "http://www.w3.org/TR/2001/REC-SVG-20010904/DTD/svg10.dtd">
<svg version="1.0" xmlns="http://www.w3.org/2000/svg"
 width="34.000000pt" height="57.000000pt" viewBox="0 0 34.000000 57.000000"
 preserveAspectRatio="xMidYMid meet">
<metadata>
Created by potrace 1.16, written by Peter Selinger 2001-2019
</metadata>
<g transform="translate(0.000000,57.000000) scale(0.100000,-0.100000)"
fill="#000000" stroke="none">
<path d="M100 562 c-38 -17 -69 -45 -80 -73 -24 -57 12 -308 51 -357 10 -14
19 -31 19 -38 0 -8 11 -14 25 -14 16 0 25 -6 25 -15 0 -18 -46 -21 -52 -3 -4
12 -87 -39 -88 -54 0 -10 0 -10 105 7 50 8 120 15 157 15 65 0 94 12 62 24 -9
3 -51 6 -95 6 -72 0 -79 2 -79 20 0 11 -4 20 -9 20 -5 0 -11 17 -15 38 -3 20
-9 46 -12 58 -4 15 1 23 21 32 41 19 75 15 75 -7 0 -11 -4 -23 -10 -26 -5 -3
-10 -11 -10 -17 0 -6 11 -1 25 12 47 44 24 80 -53 80 -39 0 -39 0 -39 38 0 44
-22 83 -58 102 -28 15 -33 47 -10 56 8 4 15 12 15 19 0 8 9 16 19 20 11 3 22
12 25 20 7 18 56 20 79 3 10 -7 21 -33 26 -58 7 -41 9 -43 15 -19 11 39 -6 92
-35 106 -26 14 -75 16 -99 5z"/>
</g>
</svg>
